# xmcd
#
# Track frame offsets:
#   150
#   4364
#   7273
#   12528
#   16668
#   19765
#   23266
#   28712
#   31952
#   35607
#   41558
#   45135
#   49651
#   55002
#   61167
#   65597
#
# Disc length: 948 seconds
#
# Revision: 0
# Processed by: cddbd v1.5.1PL2 Copyright (c) Steve Scherf et al.
# Submitted via: GXTranscoder 2.0.1939
#
DISCID=ba03b210
DTITLE=ROBERTO - MIO
DYEAR=2006
DGENRE=Classical
TTITLE0=UNO
TTITLE1=DUE
TTITLE2=TRE
TTITLE3=4
TTITLE4=5
TTITLE5=5
TTITLE6=7
TTITLE7=8
TTITLE8=9
TTITLE9=0
TTITLE10=11
TTITLE11=12
TTITLE12=13
TTITLE13=14
TTITLE14=15
TTITLE15=16
EXTD=ROBY
EXTT0=
EXTT1=
EXTT2=
EXTT3=
EXTT4=
EXTT5=
EXTT6=
EXTT7=
EXTT8=
EXTT9=
EXTT10=
EXTT11=
EXTT12=
EXTT13=
EXTT14=
EXTT15=
PLAYORDER=
